<?xml version="1.0" encoding="UTF-8"?>
<svg version="1.1" xmlns="http://www.w3.org/2000/svg" width="96" height="96">
<path d="M0 0 C3.09375 1.546875 3.09375 1.546875 5.5 3.25 C6.18359375 5.375 6.18359375 5.375 6.5 7.25 C8.99034386 8.54660434 8.99034386 8.54660434 11.5 9.25 C11.5 10.24 11.5 11.23 11.5 12.25 C12.49 12.58 13.48 12.91 14.5 13.25 C13.89069767 20.68348837 13.89069767 20.68348837 12.25 23.0625 C10.5 24.25 10.5 24.25 8.23828125 24.10546875 C7.43777344 23.88503906 6.63726562 23.66460937 5.8125 23.4375 C5.00425781 23.22480469 4.19601563 23.01210938 3.36328125 22.79296875 C2.74839844 22.61378906 2.13351563 22.43460938 1.5 22.25 C1.005 20.27 1.005 20.27 0.5 18.25 C-1.15 18.91 -2.8 19.57 -4.5 20.25 C-4.2496573 26.58367031 -3.92967026 31.36600458 0.5 36.25 C8.40868786 42.51253563 17.76908981 44.52322053 27.5 46.25 C26.73361201 52.45666329 23.14341196 55.38590193 18.5 59.25 C4.18209717 68.91167427 -17.26138481 69.23067493 -33.70214844 66.12280273 C-46.64008867 63.31994892 -58.91996384 57.62005423 -66.5 46.25 C-67.16673308 42.61383533 -66.59078689 41.38635905 -64.515625 38.26953125 C-63.60962519 37.18703361 -62.68661539 36.1186195 -61.75 35.0625 C-61.25846436 34.49515137 -60.76692871 33.92780273 -60.26049805 33.34326172 C-55.19359664 27.64649909 -49.47493476 22.97631586 -43.5 18.25 C-39.32911902 14.7513754 -35.44140315 11.18904152 -31.75 7.1875 C-22.31838697 -2.3182318 -12.11842347 -5.60191273 0 0 Z " fill="#92B7C9" transform="translate(67.5,14.75)"/>
<path d="M0 0 C7.02402808 0.14944741 10.81743147 3.49903912 16 8 C16 7.34 16 6.68 16 6 C18.31 6.33 20.62 6.66 23 7 C23 6.34 23 5.68 23 5 C23.66 5 24.32 5 25 5 C25.33 4.01 25.66 3.02 26 2 C25.23361201 8.20666329 21.64341196 11.13590193 17 15 C2.65988098 24.67666568 -18.85314484 25.00801276 -35.3059082 21.82006836 C-42.47690066 20.25058806 -48.93900824 18.32421634 -55 14 C-55 13.67 -55 13.34 -55 13 C-49.25 12.875 -49.25 12.875 -47 14 C-46.690625 13.21625 -46.38125 12.4325 -46.0625 11.625 C-45 9 -45 9 -44 7 C-41.36 7 -38.72 7 -36 7 C-36 7.66 -36 8.32 -36 9 C-35.01 9 -34.02 9 -33 9 C-32.67 9.66 -32.34 10.32 -32 11 C-31.443125 10.814375 -30.88625 10.62875 -30.3125 10.4375 C-27.600867 9.92448835 -25.65628961 10.3359276 -23 11 C-23 12.32 -23 13.64 -23 15 C-22.2575 14.62875 -21.515 14.2575 -20.75 13.875 C-18 13 -18 13 -15.6875 13.875 C-15.130625 14.24625 -14.57375 14.6175 -14 15 C-13.67 14.34 -13.34 13.68 -13 13 C-12.34 13.33 -11.68 13.66 -11 14 C-11.495 13.01 -11.495 13.01 -12 12 C-12.99 11.67 -13.98 11.34 -15 11 C-15 10.34 -15 9.68 -15 9 C-10.33543816 9.71572642 -7.16029077 11.50852228 -3.18359375 13.94140625 C-0.80455531 15.29082267 -0.80455531 15.29082267 3 15 C0.36 14.01 -2.28 13.02 -5 12 C-5 11.34 -5 10.68 -5 10 C-5.99 9.67 -6.98 9.34 -8 9 C-8.495 5.535 -8.495 5.535 -9 2 C-6.9375 1.625 -6.9375 1.625 -4 2 C-2.0377635 3.44009631 -0.30784812 5.0044559 1.44921875 6.6875 C2.91583039 8.21534281 2.91583039 8.21534281 5 8 C4.01 7.34 3.02 6.68 2 6 C2 5.34 2 4.68 2 4 C1.34 4 0.68 4 0 4 C0 2.68 0 1.36 0 0 Z " fill="#ABD0E0" transform="translate(69,59)"/>
<path d="M0 0 C1.32 0 2.64 0 4 0 C5.4606285 2.64738916 6 3.89448334 6 7 C6.66 7 7.32 7 8 7 C8 7.99 8 8.98 8 10 C9.65 10 11.3 10 13 10 C13.495 11.98 13.495 11.98 14 14 C16.31 14.66 18.62 15.32 21 16 C21 15.34 21 14.68 21 14 C21.66 13.67 22.32 13.34 23 13 C22.505 11.02 22.505 11.02 22 9 C22.66 8.67 23.32 8.34 24 8 C23.505 7.01 23.505 7.01 23 6 C23.99 6.33 24.98 6.66 26 7 C25.39069767 14.43348837 25.39069767 14.43348837 23.75 16.8125 C22 18 22 18 19.73828125 17.85546875 C18.93777344 17.63503906 18.13726562 17.41460937 17.3125 17.1875 C16.50425781 16.97480469 15.69601563 16.76210938 14.86328125 16.54296875 C14.24839844 16.36378906 13.63351563 16.18460938 13 16 C12.505 14.02 12.505 14.02 12 12 C10.35 12.66 8.7 13.32 7 14 C7.2503427 20.33367031 7.57032974 25.11600458 12 30 C19.03232122 35.56858015 27.18759082 38.06250966 36 39 C36 39.33 36 39.66 36 40 C28.40429561 40.58179863 22.85884959 39.26889853 16 36 C16 35.34 16 34.68 16 34 C15.154375 33.773125 14.30875 33.54625 13.4375 33.3125 C10.48290738 32.18438282 8.86461409 31.25388438 6.4375 29.375 C4.33536191 27.83404539 3.0436321 27.01199883 0.5 26.3125 C-2.85169399 27.23421585 -4.64624824 29.14078098 -7.171875 31.46875 C-14.06454424 37.24209688 -22.48168497 37.14886376 -31 37 C-31.33 35.35 -31.66 33.7 -32 32 C-30.68 32.66 -29.36 33.32 -28 34 C-27.67 32.68 -27.34 31.36 -27 30 C-26.01 30 -25.02 30 -24 30 C-24 29.34 -24 28.68 -24 28 C-24.66 28 -25.32 28 -26 28 C-26 27.01 -26 26.02 -26 25 C-27.98 25.33 -29.96 25.66 -32 26 C-32 24.35 -32 22.7 -32 21 C-28.37471432 20.79859524 -26.13498292 21.14223235 -23 23 C-23.66 21.02 -24.32 19.04 -25 17 C-23.02 17 -21.04 17 -19 17 C-18.67 19.97 -18.34 22.94 -18 26 C-17.34 25.01 -16.68 24.02 -16 23 C-15.01 23 -14.02 23 -13 23 C-12.67 23.66 -12.34 24.32 -12 25 C-11.01 25 -10.02 25 -9 25 C-8.34 24.34 -7.68 23.68 -7 23 C-6.34 23.33 -5.68 23.66 -5 24 C-5 23.34 -5 22.68 -5 22 C-7.31 21.34 -9.62 20.68 -12 20 C-12 19.01 -12 18.02 -12 17 C-9.69 17 -7.38 17 -5 17 C-5 17.66 -5 18.32 -5 19 C-4.01 19 -3.02 19 -2 19 C-2 18.01 -2 17.02 -2 16 C-2 15.34 -2 14.68 -2 14 C-3.65 14 -5.3 14 -7 14 C-7 13.01 -7 12.02 -7 11 C-6.01 10.67 -5.02 10.34 -4 10 C-6.31 10 -8.62 10 -11 10 C-11 8.02 -11 6.04 -11 4 C-10.195625 3.87625 -9.39125 3.7525 -8.5625 3.625 C-7.716875 3.41875 -6.87125 3.2125 -6 3 C-5.67 2.34 -5.34 1.68 -5 1 C-4.01 1 -3.02 1 -2 1 C-2 1.99 -2 2.98 -2 4 C-1.34 4 -0.68 4 0 4 C0 2.68 0 1.36 0 0 Z " fill="#9CC8DB" transform="translate(56,21)"/>
<path d="M0 0 C1.98 0 3.96 0 6 0 C6.33 2.97 6.66 5.94 7 9 C7.66 8.01 8.32 7.02 9 6 C9.99 6 10.98 6 12 6 C12.33 6.66 12.66 7.32 13 8 C13.99 8 14.98 8 16 8 C16.66 7.34 17.32 6.68 18 6 C18.66 6.33 19.32 6.66 20 7 C20 6.34 20 5.68 20 5 C17.69 4.34 15.38 3.68 13 3 C13 2.01 13 1.02 13 0 C15.31 0 17.62 0 20 0 C20 0.66 20 1.32 20 2 C22.97 2.495 22.97 2.495 26 3 C26 4.65 26 6.3 26 8 C26.66 8.33 27.32 8.66 28 9 C27.175 9.20625 26.35 9.4125 25.5 9.625 C22.3689747 10.85504565 20.77971971 11.86539219 18.25 13.9375 C10.9325675 19.62729067 3.04120216 20.51938821 -6 20 C-6.33 18.35 -6.66 16.7 -7 15 C-5.02 15.99 -5.02 15.99 -3 17 C-2.67 15.68 -2.34 14.36 -2 13 C-1.01 13 -0.02 13 1 13 C1 12.34 1 11.68 1 11 C0.34 11 -0.32 11 -1 11 C-1 10.01 -1 9.02 -1 8 C-2.98 8.33 -4.96 8.66 -7 9 C-7 7.35 -7 5.7 -7 4 C-3.37471432 3.79859524 -1.13498292 4.14223235 2 6 C1.34 4.02 0.68 2.04 0 0 Z " fill="#A4CDDF" transform="translate(31,38)"/>
<path d="M0 0 C6.7657002 0.14395107 11.3290464 3.14898697 16 8 C16 8.99 16 9.98 16 11 C13.625 12.5625 13.625 12.5625 11 14 C10.34 14.66 9.68 15.32 9 16 C8.46375 15.67 7.9275 15.34 7.375 15 C4.96867248 13.8059715 4.96867248 13.8059715 2 14 C-1.04001945 14 -2.45443536 13.56650132 -5 12 C-5 11.34 -5 10.68 -5 10 C-5.99 9.67 -6.98 9.34 -8 9 C-8.33 6.69 -8.66 4.38 -9 2 C-6.9375 1.625 -6.9375 1.625 -4 2 C-2.0377635 3.44009631 -0.30784812 5.0044559 1.44921875 6.6875 C2.91583039 8.21534281 2.91583039 8.21534281 5 8 C4.01 7.34 3.02 6.68 2 6 C2 5.34 2 4.68 2 4 C1.34 4 0.68 4 0 4 C0 2.68 0 1.36 0 0 Z " fill="#A4CCDE" transform="translate(69,59)"/>
<path d="M0 0 C0.66 0.33 1.32 0.66 2 1 C1.47792969 1.37769531 0.95585938 1.75539063 0.41796875 2.14453125 C-4.17065842 5.57595647 -8.26424154 9.19212709 -12.25 13.3125 C-17.2226765 18.40457692 -22.53608019 22.67918765 -28.25 26.90625 C-32.65815164 30.20195548 -32.65815164 30.20195548 -35 35 C-36.65002828 36.35386936 -38.3174387 37.68678142 -40 39 C-42.21818327 41.66956302 -42.21818327 41.66956302 -41.875 43.9375 C-40.75921392 46.56756719 -39.03645637 48.02923577 -37 50 C-37 50.66 -37 51.32 -37 52 C-36.38125 52.268125 -35.7625 52.53625 -35.125 52.8125 C-33 54 -33 54 -31 57 C-33.90336311 55.66342976 -36.2102811 54.15277429 -38.625 52.0625 C-39.21539062 51.55847656 -39.80578125 51.05445313 -40.4140625 50.53515625 C-42.56888549 48.44933006 -43.8764537 46.67378494 -44.421875 43.69921875 C-43.82483657 39.87927842 -41.73810805 37.61806934 -39.25 34.8125 C-38.75846436 34.24515137 -38.26692871 33.67780273 -37.76049805 33.09326172 C-32.69359664 27.39649909 -26.97493476 22.72631586 -21 18 C-16.73792536 14.42488019 -12.69923804 10.73083039 -8.8125 6.75 C-6.08612991 3.99149195 -3.59997428 1.58822395 0 0 Z " fill="#D8EAF2" transform="translate(45,15)"/>
<path d="M0 0 C0.33 0 0.66 0 1 0 C1.15855469 0.80824219 1.31710938 1.61648437 1.48046875 2.44921875 C3.26137899 10.85123683 3.26137899 10.85123683 9 17 C9.9075 17.70125 10.815 18.4025 11.75 19.125 C17.81903383 22.62636567 24.07080738 24.26285185 31 25 C31 25.33 31 25.66 31 26 C23.40429561 26.58179863 17.85884959 25.26889853 11 22 C11 21.34 11 20.68 11 20 C9.7315625 19.6596875 9.7315625 19.6596875 8.4375 19.3125 C4.49613144 17.80761382 1.11238141 15.87296745 -2 13 C-2 12.34 -2 11.68 -2 11 C-2.66 11 -3.32 11 -4 11 C-4.33 10.01 -4.66 9.02 -5 8 C-4.67 7.34 -4.34 6.68 -4 6 C-4.66 6 -5.32 6 -6 6 C-6 5.34 -6 4.68 -6 4 C-5.01 3.67 -4.02 3.34 -3 3 C-3 2.34 -3 1.68 -3 1 C-2.34 1 -1.68 1 -1 1 C-1 3.97 -1 6.94 -1 10 C-0.67 6.7 -0.34 3.4 0 0 Z " fill="#B6D6E5" transform="translate(61,35)"/>
<path d="M0 0 C0.74609375 1.71875 0.74609375 1.71875 1 4 C-3.31906955 10.02759584 -9.12843865 14.35597428 -16 17 C-17.0725 17.433125 -18.145 17.86625 -19.25 18.3125 C-22.02329979 19.00582495 -23.36647003 19.01289614 -26 18 C-24.6875 16.5 -24.6875 16.5 -23 15 C-22.01 15 -21.02 15 -20 15 C-19.67 13.68 -19.34 12.36 -19 11 C-19 11.66 -19 12.32 -19 13 C-18.34 13 -17.68 13 -17 13 C-16.67 12.34 -16.34 11.68 -16 11 C-15.34 11 -14.68 11 -14 11 C-12.32254318 10.36096883 -10.65438613 9.69658363 -9 9 C-9 7.68 -9 6.36 -9 5 C-6.3333581 3.66667905 -4.83319697 4.32897967 -2 5 C-2 4.34 -2 3.68 -2 3 C-1.34 3 -0.68 3 0 3 C0 2.01 0 1.02 0 0 Z " fill="#BEDAE6" transform="translate(94,61)"/>
<path d="M0 0 C1.32 0.33 2.64 0.66 4 1 C4.33 2.32 4.66 3.64 5 5 C5.66 5 6.32 5 7 5 C7.33 4.01 7.66 3.02 8 2 C8.33 3.32 8.66 4.64 9 6 C5.98509443 7.00496852 3.95818308 7.10335303 0.8125 7.0625 C-0.08855469 7.05347656 -0.98960938 7.04445313 -1.91796875 7.03515625 C-2.60503906 7.02355469 -3.29210937 7.01195312 -4 7 C-4.33 5.35 -4.66 3.7 -5 2 C-3.02 2.99 -3.02 2.99 -1 4 C-0.67 2.68 -0.34 1.36 0 0 Z " fill="#AED3E3" transform="translate(29,51)"/>
<path d="M0 0 C0.99 0.33 1.98 0.66 3 1 C2.39069767 8.43348837 2.39069767 8.43348837 0.75 10.8125 C-1 12 -1 12 -3.26171875 11.85546875 C-4.06222656 11.63503906 -4.86273438 11.41460937 -5.6875 11.1875 C-6.49574219 10.97480469 -7.30398437 10.76210938 -8.13671875 10.54296875 C-8.75160156 10.36378906 -9.36648437 10.18460938 -10 10 C-10.33 8.68 -10.66 7.36 -11 6 C-12.98 6.66 -14.96 7.32 -17 8 C-16.67 6.68 -16.34 5.36 -16 4 C-13.03 4.495 -13.03 4.495 -10 5 C-9.67 5.99 -9.34 6.98 -9 8 C-5.48809191 9.22969878 -5.48809191 9.22969878 -2 10 C-2 9.34 -2 8.68 -2 8 C-1.34 7.67 -0.68 7.34 0 7 C-0.33 5.68 -0.66 4.36 -1 3 C-0.34 2.67 0.32 2.34 1 2 C0.67 1.34 0.34 0.68 0 0 Z " fill="#D8E8EF" transform="translate(79,27)"/>
<path d="M0 0 C0.68964844 0.47050781 1.37929687 0.94101562 2.08984375 1.42578125 C10.1966012 6.79692507 17.33985789 9.97232531 27 11 C27 11.33 27 11.66 27 12 C19.40429561 12.58179863 13.85884959 11.26889853 7 8 C7 7.34 7 6.68 7 6 C6.030625 5.7525 5.06125 5.505 4.0625 5.25 C3.051875 4.8375 2.04125 4.425 1 4 C0.30859375 1.921875 0.30859375 1.921875 0 0 Z " fill="#D8E9F0" transform="translate(65,49)"/>
<path d="M0 0 C2.48527616 0.41421269 4.5934637 0.77570411 6.8125 2 C9.04414318 3.02017974 10.64150271 3.25259882 13.0625 3.5 C17 4 17 4 20 6 C20 6.66 20 7.32 20 8 C12.86086211 7.3792054 4.89403864 5.56140755 0 0 Z " fill="#C9DEE7" transform="translate(14,72)"/>
<path d="M0 0 C0.99 0.33 1.98 0.66 3 1 C3 1.66 3 2.32 3 3 C3.804375 3.2475 4.60875 3.495 5.4375 3.75 C8 5 8 5 8.8125 7.125 C8.874375 7.74375 8.93625 8.3625 9 9 C5 9 5 9 2 8 C1.26953125 6.15234375 1.26953125 6.15234375 0.8125 3.9375 C0.65394531 3.20402344 0.49539062 2.47054687 0.33203125 1.71484375 C0.22246094 1.14894531 0.11289062 0.58304688 0 0 Z " fill="#9CC8DA" transform="translate(62,63)"/>
<path d="M0 0 C3.3 0 6.6 0 10 0 C10 0.99 10 1.98 10 3 C9.34 3 8.68 3 8 3 C8 3.66 8 4.32 8 5 C5.69 4.67 3.38 4.34 1 4 C1.66 3.67 2.32 3.34 3 3 C3 2.34 3 1.68 3 1 C2.01 0.67 1.02 0.34 0 0 Z " fill="#A9C7D3" transform="translate(84,61)"/>
<path d="M0 0 C0.99 0 1.98 0 3 0 C3 1.32 3 2.64 3 4 C-2.75 5 -2.75 5 -5 5 C-5 5.66 -5 6.32 -5 7 C-4.34 7.33 -3.68 7.66 -3 8 C-3.99 8 -4.98 8 -6 8 C-6 6.35 -6 4.7 -6 3 C-5.195625 2.87625 -4.39125 2.7525 -3.5625 2.625 C-2.716875 2.41875 -1.87125 2.2125 -1 2 C-0.67 1.34 -0.34 0.68 0 0 Z " fill="#A6CEE1" transform="translate(51,22)"/>
<path d="M0 0 C1.98 0.66 3.96 1.32 6 2 C6.33 3.65 6.66 5.3 7 7 C8.2065625 7.185625 8.2065625 7.185625 9.4375 7.375 C10.7059375 7.684375 10.7059375 7.684375 12 8 C12.33 8.66 12.66 9.32 13 10 C10.03 9.67 7.06 9.34 4 9 C3.67 8.01 3.34 7.02 3 6 C3.99 6 4.98 6 6 6 C4.60804085 3.2160817 2.84424221 3.02101003 0 2 C0 1.34 0 0.68 0 0 Z " fill="#CFE5ED" transform="translate(66,15)"/>
<path d="M0 0 C0.76953125 1.703125 0.76953125 1.703125 1 4 C-0.80078125 6.359375 -0.80078125 6.359375 -3.3125 8.75 C-4.54419922 9.94882813 -4.54419922 9.94882813 -5.80078125 11.171875 C-8 13 -8 13 -10 13 C-9.67 11.68 -9.34 10.36 -9 9 C-7.68 8.67 -6.36 8.34 -5 8 C-5 7.01 -5 6.02 -5 5 C-4.01 5 -3.02 5 -2 5 C-2 4.34 -2 3.68 -2 3 C-1.34 3 -0.68 3 0 3 C0 2.01 0 1.02 0 0 Z " fill="#D0E3EA" transform="translate(94,61)"/>
<path d="M0 0 C2.04119788 1.61594832 4.04072937 3.2856382 6 5 C6 5.66 6 6.32 6 7 C6.61875 7.268125 7.2375 7.53625 7.875 7.8125 C10 9 10 9 12 12 C9.11835799 10.66413946 6.74723292 9.16362669 4.3125 7.125 C3.71050781 6.63257812 3.10851562 6.14015625 2.48828125 5.6328125 C0.79512501 3.77522902 0.39815079 2.45260887 0 0 Z " fill="#D5EAF1" transform="translate(2,60)"/>
<path d="M0 0 C0.99 0.33 1.98 0.66 3 1 C2.67 3.64 2.34 6.28 2 9 C0.68 9.33 -0.64 9.66 -2 10 C-2 9.34 -2 8.68 -2 8 C-1.34 7.67 -0.68 7.34 0 7 C-0.33 5.68 -0.66 4.36 -1 3 C-0.34 2.67 0.32 2.34 1 2 C0.67 1.34 0.34 0.68 0 0 Z " fill="#C3D8E4" transform="translate(79,27)"/>
<path d="M0 0 C1.98 0 3.96 0 6 0 C5.67 2.31 5.34 4.62 5 7 C4.67 6.01 4.34 5.02 4 4 C1.99983534 2.79117904 1.99983534 2.79117904 0 2 C0 1.34 0 0.68 0 0 Z " fill="#9EC6D8" transform="translate(31,38)"/>
<path d="M0 0 C1.65 0 3.3 0 5 0 C5.33 1.32 5.66 2.64 6 4 C4.02 4.99 4.02 4.99 2 6 C1.34 4.02 0.68 2.04 0 0 Z " fill="#9FC6D8" transform="translate(25,66)"/>
<path d="M0 0 C3.34373475 0.55728913 6.03312999 1.35173889 9 3 C9 3.66 9 4.32 9 5 C5.22454612 3.90931332 2.52956528 3.0916909 0 0 Z " fill="#D6E8F0" transform="translate(14,72)"/>
<path d="M0 0 C0.66 0 1.32 0 2 0 C2 0.66 2 1.32 2 2 C2.99 2 3.98 2 5 2 C5.33 2.99 5.66 3.98 6 5 C5.01 5.99 4.02 6.98 3 8 C3 6.35 3 4.7 3 3 C2.34 3 1.68 3 1 3 C0.67 2.01 0.34 1.02 0 0 Z " fill="#9AC6DA" transform="translate(49,38)"/>
<path d="M0 0 C0.99 1.32 1.98 2.64 3 4 C2.67 4.66 2.34 5.32 2 6 C1.34 5.67 0.68 5.34 0 5 C-0.33 5.66 -0.66 6.32 -1 7 C-1.33 5.02 -1.66 3.04 -2 1 C-1.34 0.67 -0.68 0.34 0 0 Z " fill="#A4C3D3" transform="translate(78,25)"/>
</svg>
