<svg fill="none" height="48" viewBox="0 0 48 48" width="48" xmlns="http://www.w3.org/2000/svg"><path clip-rule="evenodd" d="m24 1.5c12.4264 0 22.5 10.0736 22.5 22.5s-10.0736 22.5-22.5 22.5-22.5-10.0736-22.5-22.5 10.0736-22.5 22.5-22.5zm9.0007 14.5008c.9282 0 1.6899-1.0879 1.0432-1.7537-2.544-2.6191-6.1036-4.2463-10.0432-4.2463-7.732 0-14 6.268-14 14s6.268 14 14 14c3.9396 0 7.4992-1.6272 10.0432-4.2463.6467-.6658-.115-1.7537-1.0432-1.7537-4.4182 0-8-3.5817-8-8s3.5818-8 8-8z" fill="#000" fill-rule="evenodd"/></svg>